<?xml version="1.0" encoding="iso-8859-1"?>
<!-- Generator: Adobe Illustrator 18.1.1, SVG Export Plug-In . SVG Version: 6.00 Build 0)  -->
<svg version="1.1" id="Capa_1" xmlns="http://www.w3.org/2000/svg" xmlns:xlink="http://www.w3.org/1999/xlink" x="0px" y="0px"
	 viewBox="0 0 25.814 25.814" style="enable-background:new 0 0 25.814 25.814;" xml:space="preserve">
<g>
	<path style="fill:#030104;" d="M12.786,23H4c-1.104,0-2-0.896-2-2V4c0-1.104,0.896-2,2-2l6.289-0.004C11.01,2.18,11,3.066,11,3.953
		V7c0,0.551,0.449,1,1,1h3c0.998,0,2,0.005,2,1v3.786c0.629-0.262,1.301-0.438,2-0.527V8c0-1.063-0.988-2.082-2.734-3.793
		c-0.244-0.24-0.494-0.484-0.74-0.732c-0.248-0.246-0.492-0.496-0.732-0.74C13.082,0.988,12.063,0,11,0H4C1.795,0,0,1.795,0,4v17
		c0,2.205,1.795,4,4,4h9.999C13.5,24.402,13.09,23.729,12.786,23z"/>
	<g>
		<path style="fill:#030104;" d="M20,14.188c-3.21,0-5.813,2.603-5.813,5.813c0,3.211,2.603,5.813,5.813,5.813
			s5.813-2.602,5.813-5.813S23.21,14.188,20,14.188z M23,21h-2v2h-2v-2h-2v-2h2v-2h2v2h2V21z"/>
	</g>
</g>
<g>
</g>
<g>
</g>
<g>
</g>
<g>
</g>
<g>
</g>
<g>
</g>
<g>
</g>
<g>
</g>
<g>
</g>
<g>
</g>
<g>
</g>
<g>
</g>
<g>
</g>
<g>
</g>
<g>
</g>
</svg>
