<?xml version="1.0" encoding="iso-8859-1"?>
<!-- Generator: Adobe Illustrator 16.0.0, SVG Export Plug-In . SVG Version: 6.00 Build 0)  -->
<!DOCTYPE svg PUBLIC "-//W3C//DTD SVG 1.1//EN" "http://www.w3.org/Graphics/SVG/1.1/DTD/svg11.dtd">
<svg version="1.1" id="Capa_1" xmlns="http://www.w3.org/2000/svg" xmlns:xlink="http://www.w3.org/1999/xlink" x="0px" y="0px"
	 width="460.678px" height="460.678px" viewBox="0 0 460.678 460.678" style="enable-background:new 0 0 460.678 460.678;"
	 xml:space="preserve">
<g>
	<path d="M230.339,460.678c61.525,0,119.369-23.959,162.875-67.465c43.505-43.505,67.464-101.35,67.464-162.874
		c0-61.525-23.959-119.369-67.464-162.875C349.708,23.959,291.864,0,230.339,0C168.814,0,110.97,23.959,67.464,67.464
		C23.959,110.97,0,168.814,0,230.339c0,61.524,23.959,119.369,67.464,162.875C110.97,436.719,168.814,460.678,230.339,460.678z
		 M85.142,85.142C123.926,46.359,175.491,25,230.339,25c54.848,0,106.413,21.359,145.197,60.143
		c38.784,38.784,60.142,90.348,60.142,145.196c0,54.849-21.358,106.413-60.143,145.197s-90.349,60.142-145.196,60.142
		c-54.848,0-106.413-21.358-145.197-60.143C46.358,336.751,25,285.188,25,230.339C25,175.491,46.359,123.926,85.142,85.142z"/>
</g>
<g>
</g>
<g>
</g>
<g>
</g>
<g>
</g>
<g>
</g>
<g>
</g>
<g>
</g>
<g>
</g>
<g>
</g>
<g>
</g>
<g>
</g>
<g>
</g>
<g>
</g>
<g>
</g>
<g>
</g>
</svg>
