<?xml version="1.0" encoding="iso-8859-1"?>
<!-- Generator: Adobe Illustrator 18.1.1, SVG Export Plug-In . SVG Version: 6.00 Build 0)  -->
<svg version="1.1" id="Capa_1" xmlns="http://www.w3.org/2000/svg" xmlns:xlink="http://www.w3.org/1999/xlink" x="0px" y="0px"
	 viewBox="0 0 372.813 372.813" style="enable-background:new 0 0 372.813 372.813;" xml:space="preserve">
<g>
	<g id="Layer_1_7_">
		<g>
			<path d="M365.863,137.909c-2.747-8.844-12.144-13.786-20.987-11.039l-46.673,15.492c0,0-13.036-5.75-27.136-21.678
				c-14.099-15.929-40.561-54.583-77.502-53.219l-69.993,1.913c0,0-9.051,0.281-13.882,5.723l-40.12,45.753
				c-4.529,5.167-5.175,12.939-1.097,18.854c4.818,6.985,14.387,8.742,21.371,3.925l41.732-28.781l34.155-0.019
				c-14.867,21.345-42.973,67.431-47.093,79.591l-24.245,71.525l-78.801,51.549c-8.721,5.691-11.973,17.145-7.195,26.676
				c5.137,10.251,17.611,14.396,27.861,9.259l93.757-46.989c4.058-2.03,7.526-5.334,9.735-9.691l27.925-55.111l26.504,33.35
				l-32.518,68.075c-4.367,9.119-1.535,20.31,7.086,26.159c9.498,6.445,22.426,3.969,28.87-5.53l53.303-78.563
				c5.269-7.792,5.825-18.283,0.547-26.793l-30.157-48.608c7.603-13.437,17.692-28.726,28.004-43.293l32.904,21.098l3.325,2.138
				c6.208,3.965,14.399,4.267,21.056,0.095l52.152-32.675C365.044,153.15,368.17,145.333,365.863,137.909z"/>
			<circle cx="272.964" cy="45.667" r="45.667"/>
		</g>
	</g>
</g>
<g>
</g>
<g>
</g>
<g>
</g>
<g>
</g>
<g>
</g>
<g>
</g>
<g>
</g>
<g>
</g>
<g>
</g>
<g>
</g>
<g>
</g>
<g>
</g>
<g>
</g>
<g>
</g>
<g>
</g>
</svg>
