<?xml version="1.0" encoding="iso-8859-1"?>
<!-- Generator: Adobe Illustrator 18.1.1, SVG Export Plug-In . SVG Version: 6.00 Build 0)  -->
<svg version="1.1" id="Capa_1" xmlns="http://www.w3.org/2000/svg" xmlns:xlink="http://www.w3.org/1999/xlink" x="0px" y="0px"
	 viewBox="0 0 48.908 48.908" style="enable-background:new 0 0 48.908 48.908;" xml:space="preserve">
<g>
	<path style="fill:#010002;" d="M41.458,1.945v20.427c0,1.105-0.895,2-2,2H10c-1.105,0-2-0.895-2-2V1.917
		c0-1.105-0.909-2.026-1.98-1.753C2.559,1.045,0,4.182,0,7.917v32.909c0,3.662,2.462,6.743,5.819,7.691
		c1.063,0.3,1.972-0.351,1.972-1.152s0.895-1.451,2-1.451h5c1.105,0,2,0.652,2,1.456s0.895,1.456,2,1.456h22.117
		c4.418,0,8-3.582,8-8V7.917c0-3.541-2.303-6.539-5.492-7.59C42.368-0.018,41.458,0.84,41.458,1.945z M39.125,41.082H10.333
		c-1.104,0-2-0.896-2-2s0.896-2,2-2h28.792c1.104,0,2,0.896,2,2S40.229,41.082,39.125,41.082z M39.125,33.327H10.333
		c-1.104,0-2-0.896-2-2s0.896-2,2-2h28.792c1.104,0,2,0.896,2,2S40.229,33.327,39.125,33.327z"/>
	<path style="fill:#010002;" d="M34.792,0.081h-3.333c-1.105,0-2,0.895-2,2v15.333c0,1.105,0.895,2,2,2h3.333c1.105,0,2-0.895,2-2
		V2.081C36.792,0.977,35.896,0.081,34.792,0.081z"/>
</g>
<g>
</g>
<g>
</g>
<g>
</g>
<g>
</g>
<g>
</g>
<g>
</g>
<g>
</g>
<g>
</g>
<g>
</g>
<g>
</g>
<g>
</g>
<g>
</g>
<g>
</g>
<g>
</g>
<g>
</g>
</svg>
